<svg width="8" height="10" viewBox="0 0 8 10" fill="none" xmlns="http://www.w3.org/2000/svg">
<path d="M8 9.4997L8 0.499443C7.99969 0.40832 7.97284 0.319 7.92233 0.241098C7.87181 0.163196 7.79955 0.0996609 7.71333 0.057333C7.6271 0.0150051 7.53017 -0.00451374 7.43297 0.000878334C7.33577 0.00626945 7.24198 0.0363674 7.1617 0.0879316L0.215985 4.58806C-0.0719951 4.77456 -0.0719951 5.22358 0.215985 5.41058L7.1617 9.91071C7.24182 9.9628 7.33565 9.99335 7.43301 9.99903C7.53037 10.0047 7.62754 9.98532 7.71395 9.94295C7.80036 9.90059 7.87271 9.83687 7.92314 9.75872C7.97357 9.68058 8.00015 9.59099 8 9.4997Z" fill="black"/>
</svg>
