<svg width="10" height="8" viewBox="0 0 10 8" fill="none" xmlns="http://www.w3.org/2000/svg">
<g id="arrow up 2/outlined">
<path id="Vector" d="M0.500301 8H9.50056C9.59168 7.99969 9.681 7.97284 9.7589 7.92233C9.8368 7.87181 9.90034 7.79955 9.94267 7.71333C9.98499 7.6271 10.0045 7.53017 9.99912 7.43297C9.99373 7.33577 9.96363 7.24198 9.91207 7.1617L5.41194 0.215985C5.22544 -0.0719951 4.77642 -0.0719951 4.58942 0.215985L0.0892894 7.1617C0.0372003 7.24182 0.00665413 7.33565 0.00096949 7.43301C-0.00471515 7.53037 0.0146792 7.62754 0.0570455 7.71395C0.0994117 7.80036 0.163129 7.87271 0.241276 7.92314C0.319422 7.97357 0.409008 8.00015 0.500301 8ZM5.00043 1.45873L8.54653 6.93143H1.45433L5.00043 1.45873Z" fill="#EF8915"/>
</g>
</svg>
