<svg width="13" height="20" viewBox="0 0 13 20" fill="none" xmlns="http://www.w3.org/2000/svg">
<g id="arrow down/full">
<path id="Vector" d="M1.7037e-06 1.00072L2.49052e-06 19.0012C0.000498537 19.1835 0.0441378 19.3621 0.126222 19.5179C0.208306 19.6737 0.325726 19.8008 0.465845 19.8855C0.605964 19.9701 0.763476 20.0092 0.921424 19.9984C1.07937 19.9876 1.23178 19.9274 1.36223 19.8243L12.649 10.824C13.117 10.451 13.117 9.55297 12.649 9.17896L1.36223 0.178701C1.23205 0.0745233 1.07957 0.0134309 0.921356 0.00206158C0.763144 -0.0093077 0.605253 0.0294811 0.464838 0.114214C0.324422 0.198946 0.206851 0.326381 0.1249 0.482674C0.0429487 0.638967 -0.000247989 0.81814 1.7037e-06 1.00072Z" fill="#7B7878"/>
</g>
</svg>
