<svg width="15" height="9" viewBox="0 0 15 9" fill="none" xmlns="http://www.w3.org/2000/svg">
<g id="arrow down/outlined">
<path id="Vector" d="M13.7996 0.000123024L1.19922 0.000123024C1.07165 0.000466347 0.9466 0.0306778 0.837537 0.0875053C0.728474 0.144333 0.639525 0.225624 0.580266 0.322629C0.521007 0.419635 0.49368 0.528682 0.501228 0.63803C0.508777 0.747379 0.550914 0.852889 0.623104 0.943205L6.92328 8.75714C7.18439 9.08112 7.81301 9.08112 8.07482 8.75714L14.375 0.943205C14.4479 0.853078 14.4907 0.747514 14.4986 0.637983C14.5066 0.528452 14.4794 0.419143 14.4201 0.321932C14.3608 0.224721 14.2716 0.143326 14.1622 0.0865908C14.0528 0.0298548 13.9274 -5.05447e-05 13.7996 0.000123024ZM7.4994 7.35905L2.53486 1.20227L12.4639 1.20227L7.4994 7.35905Z" fill="#7B7878"/>
</g>
</svg>
