<svg width="7" height="10" viewBox="0 0 7 10" fill="none" xmlns="http://www.w3.org/2000/svg">
<g id="arrow left 2/outlined">
<path id="Vector" d="M7 9.4997L7 0.499443C6.99973 0.40832 6.97623 0.319 6.93203 0.241098C6.88784 0.163196 6.82461 0.0996609 6.74916 0.057333C6.67371 0.0150051 6.5889 -0.00451374 6.50385 0.000878334C6.4188 0.00626945 6.33674 0.0363674 6.26649 0.0879316L0.188987 4.58806C-0.0629957 4.77456 -0.0629957 5.22358 0.188987 5.41058L6.26649 9.91071C6.33659 9.9628 6.41869 9.99335 6.50389 9.99903C6.58908 10.0047 6.67409 9.98532 6.7497 9.94295C6.82531 9.90059 6.88862 9.83687 6.93275 9.75872C6.97687 9.68058 7.00013 9.59099 7 9.4997ZM1.27639 4.99957L6.065 1.45347L6.065 8.54567L1.27639 4.99957Z" fill="#EF8915"/>
</g>
</svg>
