<svg width="11" height="7" viewBox="0 0 11 7" fill="none" xmlns="http://www.w3.org/2000/svg">
<path d="M10.4497 9.53674e-07L0.549387 9.53674e-07C0.449152 0.000267982 0.3509 0.023766 0.265207 0.0679655C0.179515 0.112164 0.109627 0.175391 0.0630665 0.250839C0.0165052 0.326288 -0.00496578 0.411102 0.000965118 0.496151C0.00689602 0.5812 0.0400038 0.663264 0.0967245 0.733509L5.04686 6.81101C5.25202 7.063 5.74593 7.063 5.95164 6.81101L10.9018 0.733509C10.9591 0.66341 10.9927 0.581306 10.9989 0.496115C11.0052 0.410924 10.9839 0.325906 10.9372 0.250297C10.8906 0.174689 10.8206 0.111381 10.7346 0.0672536C10.6486 0.0231261 10.5501 -0.000133514 10.4497 9.53674e-07ZM5.49953 5.72361L1.59882 0.935002L9.40024 0.935002L5.49953 5.72361Z" fill="black"/>
</svg>
