<svg width="9" height="14" viewBox="0 0 9 14" fill="none" xmlns="http://www.w3.org/2000/svg">
<g id="arrow down/outlined">
<path id="Vector" d="M9.84291e-07 0.700544L1.53507e-06 13.3009C0.000344863 13.4285 0.0305563 13.5535 0.0873839 13.6626C0.144211 13.7716 0.225503 13.8606 0.322508 13.9199C0.419513 13.9791 0.52856 14.0064 0.637909 13.9989C0.747258 13.9913 0.852768 13.9492 0.943083 13.877L8.75702 7.57684C9.08099 7.31573 9.08099 6.68711 8.75702 6.42531L0.943083 0.125128C0.852956 0.0522029 0.747392 0.00943822 0.637861 0.00147972C0.52833 -0.00647877 0.419021 0.0206734 0.32181 0.0799861C0.224599 0.139299 0.143204 0.228504 0.0864687 0.337909C0.0297327 0.447313 -0.00017259 0.572734 9.84291e-07 0.700544ZM7.35892 7.00072L1.20215 11.9653L1.20214 2.03618L7.35892 7.00072Z" fill="#7B7878"/>
</g>
</svg>
