<svg width="8" height="10" viewBox="0 0 8 10" fill="none" xmlns="http://www.w3.org/2000/svg">
<g id="arrow right 2/full">
<path id="Vector" d="M1.40714e-06 0.500301L9.86765e-07 9.50056C0.000306158 9.59168 0.0271611 9.681 0.0776744 9.7589C0.128188 9.8368 0.200446 9.90034 0.286673 9.94267C0.3729 9.98499 0.469831 10.0045 0.567029 9.99912C0.664228 9.99373 0.758015 9.96363 0.838296 9.91207L7.78401 5.41194C8.07199 5.22544 8.07199 4.77642 7.78401 4.58942L0.838296 0.0892891C0.758183 0.0372 0.664349 0.00665383 0.566988 0.000969186C0.469627 -0.00471546 0.372464 0.0146789 0.286054 0.0570451C0.199645 0.0994114 0.127293 0.163129 0.0768614 0.241275C0.0264301 0.319422 -0.000152607 0.409008 1.40714e-06 0.500301Z" fill="#EF8915"/>
</g>
</svg>
