<svg width="11" height="8" viewBox="0 0 11 8" fill="none" xmlns="http://www.w3.org/2000/svg">
<g id="arrow down 2/outlined">
<path id="Vector" d="M10.4497 1.43051e-06L0.549387 1.43051e-06C0.449152 0.000306606 0.3509 0.0271616 0.265207 0.0776749C0.179515 0.128188 0.109627 0.200447 0.0630665 0.286674C0.0165052 0.372901 -0.00496578 0.469831 0.000965118 0.56703C0.00689602 0.664229 0.0400038 0.758016 0.0967245 0.838296L5.04686 7.78401C5.25202 8.072 5.74593 8.072 5.95164 7.78401L10.9018 0.838296C10.9591 0.758183 10.9927 0.664349 10.9989 0.566988C11.0052 0.469627 10.9839 0.372464 10.9372 0.286054C10.8906 0.199645 10.8206 0.127293 10.7346 0.0768614C10.6486 0.0264301 10.5501 -0.000152588 10.4497 1.43051e-06ZM5.49953 6.54127L1.59882 1.06857L9.40024 1.06857L5.49953 6.54127Z" fill="#EF8915"/>
</g>
</svg>
