<svg width="10" height="8" viewBox="0 0 10 8" fill="none" xmlns="http://www.w3.org/2000/svg">
<g id="arrow down 2/full">
<path id="Vector" d="M9.4997 1.43051e-06L0.499443 1.43051e-06C0.40832 0.000306606 0.319 0.0271616 0.241098 0.0776749C0.163196 0.128188 0.0996609 0.200447 0.057333 0.286674C0.0150051 0.372901 -0.00451374 0.469831 0.000878334 0.56703C0.00626945 0.664229 0.0363674 0.758016 0.0879316 0.838296L4.58806 7.78401C4.77456 8.072 5.22358 8.072 5.41058 7.78401L9.91071 0.838296C9.9628 0.758183 9.99335 0.664349 9.99903 0.566988C10.0047 0.469627 9.98532 0.372464 9.94295 0.286054C9.90059 0.199645 9.83687 0.127293 9.75872 0.0768614C9.68058 0.0264301 9.59099 -0.000152588 9.4997 1.43051e-06Z" fill="#EF8915"/>
</g>
</svg>
