<svg width="10" height="10" viewBox="0 0 10 10" fill="none" xmlns="http://www.w3.org/2000/svg">
<g id="check">
<path id="Vector" fill-rule="evenodd" clip-rule="evenodd" d="M9.65693 0.13143C10.0072 0.375307 10.1054 0.874673 9.8763 1.24758L4.72519 9.63487C4.66517 9.73259 4.58594 9.81528 4.49296 9.87721C4.39999 9.93914 4.29549 9.97884 4.18669 9.99356C4.0779 10.0083 3.9674 9.99768 3.86282 9.96249C3.75825 9.92729 3.66211 9.86834 3.58103 9.78971L0.247959 6.56383C0.0992884 6.41993 0.010403 6.21904 0.000856432 6.00537C-0.00869013 5.79169 0.0618841 5.58273 0.197054 5.42445C0.332223 5.26617 0.520916 5.17155 0.721621 5.16138C0.922326 5.15122 1.1186 5.22635 1.26727 5.37026L3.94343 7.95999L8.60852 0.364984C8.71848 0.186031 8.8907 0.0608969 9.0873 0.0170994C9.2839 -0.0266982 9.4888 0.0144265 9.65693 0.13143Z" fill="#EF8915"/>
</g>
</svg>
