<svg width="69" height="65" viewBox="0 0 69 65" fill="none" xmlns="http://www.w3.org/2000/svg">
<g id="Group 2649">
<path id="Vector" d="M7.13681 63H61.8632C62.752 62.9998 63.6256 62.7694 64.3986 62.3313C65.1716 61.8931 65.8175 61.2622 66.2733 60.5003C66.729 59.7383 66.979 58.8713 66.9987 57.9839C67.0185 57.0966 66.8074 56.2194 66.386 55.4379L39.0244 4.69811C37.0833 1.10063 31.9167 1.10063 29.9756 4.69811L2.614 55.4379C2.19263 56.2194 1.98151 57.0966 2.00127 57.9839C2.02103 58.8713 2.27099 59.7383 2.72673 60.5003C3.18246 61.2622 3.82838 61.8931 4.60137 62.3313C5.37435 62.7694 6.24796 62.9998 7.13681 63Z" stroke="#EF4444" stroke-width="3" stroke-linecap="round" stroke-linejoin="round"/>
<path id="Vector_2" d="M33.0007 22.9301L34.0007 42L34.999 22.9379C35.0051 22.816 34.9835 22.6943 34.9355 22.5802C34.8875 22.4661 34.814 22.362 34.7196 22.2742C34.6252 22.1864 34.5118 22.1168 34.3864 22.0697C34.261 22.0226 34.1262 21.9989 33.9902 22C33.8567 22.0012 33.7247 22.0264 33.6021 22.0741C33.4796 22.1218 33.3689 22.191 33.2767 22.2777C33.1844 22.3644 33.1125 22.4668 33.0651 22.5788C33.0177 22.6909 32.9958 22.8103 33.0007 22.9301Z" stroke="#EF4444" stroke-width="3" stroke-linecap="round" stroke-linejoin="round"/>
<path id="Vector_3" d="M34 55C33.4067 55 32.8266 54.8241 32.3333 54.4944C31.8399 54.1648 31.4554 53.6962 31.2284 53.148C31.0013 52.5999 30.9419 51.9967 31.0576 51.4147C31.1734 50.8328 31.4591 50.2982 31.8787 49.8787C32.2982 49.4591 32.8328 49.1734 33.4147 49.0576C33.9967 48.9419 34.5999 49.0013 35.148 49.2284C35.6962 49.4554 36.1648 49.8399 36.4944 50.3333C36.8241 50.8266 37 51.4067 37 52C37 52.7957 36.6839 53.5587 36.1213 54.1213C35.5587 54.6839 34.7957 55 34 55Z" fill="#EF4444"/>
</g>
</svg>
