<svg width="25" height="25" viewBox="0 0 25 25" fill="none" xmlns="http://www.w3.org/2000/svg">
<g id="check">
<path id="Vector" fill-rule="evenodd" clip-rule="evenodd" d="M23.3966 0.984476C24.235 1.56577 24.4699 2.75604 23.9217 3.6449L11.5929 23.6365C11.4492 23.8694 11.2596 24.0665 11.0371 24.2141C10.8146 24.3618 10.5645 24.4564 10.3041 24.4915C10.0437 24.5266 9.77918 24.5013 9.5289 24.4174C9.27862 24.3335 9.0485 24.193 8.85446 24.0056L0.877016 16.3165C0.521185 15.9735 0.308445 15.4947 0.285596 14.9854C0.262747 14.4761 0.431661 13.978 0.755178 13.6007C1.0787 13.2235 1.53032 12.9979 2.01069 12.9737C2.49106 12.9495 2.96083 13.1285 3.31666 13.4715L9.72182 19.6443L20.8873 1.54117C21.1505 1.11462 21.5627 0.816355 22.0333 0.711961C22.5038 0.607567 22.9942 0.70559 23.3966 0.984476Z" fill="#259A2A"/>
</g>
</svg>
