<svg width="342" height="122" viewBox="0 0 342 122" fill="none" xmlns="http://www.w3.org/2000/svg">
<path d="M342 67.0339C342 72.914 340.39 77.7791 337.17 81.6291C333.95 85.4792 329.085 87.4042 322.575 87.4042C316.065 87.4042 311.13 85.4792 307.77 81.6291C304.479 77.7091 302.834 72.844 302.834 67.0339V53.1737C302.834 46.5236 304.514 41.4486 307.875 37.9485C311.305 34.3785 316.205 32.5934 322.575 32.5934C328.665 32.5934 333.425 34.4485 336.855 38.1585C340.285 41.7986 342 46.8036 342 53.1737V67.0339ZM330.555 53.1737C330.555 49.4637 329.785 47.0486 328.245 45.9286C326.705 44.8086 324.815 44.2486 322.575 44.2486C317.115 44.2486 314.385 47.2237 314.385 53.1737V68.0839C314.385 70.884 315.155 72.914 316.695 74.174C318.235 75.4341 320.195 76.0641 322.575 76.0641C324.885 76.0641 326.775 75.3991 328.245 74.069C329.785 72.739 330.555 70.744 330.555 68.0839V53.1737Z" fill="#3D3935"/>
<path d="M268.142 99.3744C270.522 99.3744 272.377 98.6744 273.707 97.2744C275.107 95.9443 275.807 93.9143 275.807 91.1843V85.5142C275.247 85.9342 274.232 86.3892 272.762 86.8792C271.362 87.3692 269.542 87.6142 267.302 87.6142C261.142 87.6142 256.347 85.9342 252.917 82.5742C249.487 79.2141 247.772 74.314 247.772 67.8739V52.2287C247.772 46.0686 249.557 41.3086 253.127 37.9485C256.767 34.5185 261.632 32.8035 267.722 32.8035C269.682 32.8035 271.432 33.0485 272.972 33.5385C274.512 33.9585 275.492 34.4135 275.912 34.9035L278.117 33.7485H287.357V93.0743C287.357 103.294 281.862 108.405 270.872 108.405L268.142 99.3744ZM275.807 53.2787C275.807 50.4787 275.177 48.2737 273.917 46.6636C272.657 45.0536 270.452 44.2486 267.302 44.2486C264.432 44.2486 262.367 45.0886 261.107 46.7687C259.917 48.3787 259.322 50.3737 259.322 52.7537V66.2989C259.322 73.089 261.982 76.4841 267.302 76.4841C270.732 76.4841 273.007 75.364 274.127 73.124C275.247 70.884 275.807 67.2089 275.807 62.0989V53.2787Z" fill="#3D3935"/>
<path d="M237.716 67.0339C237.716 72.914 236.106 77.7791 232.886 81.6291C229.666 85.4792 224.801 87.4042 218.291 87.4042C211.781 87.4042 206.846 85.4792 203.486 81.6291C200.196 77.7091 198.551 72.844 198.551 67.0339V53.1737C198.551 46.5236 200.231 41.4486 203.591 37.9485C207.021 34.3785 211.921 32.5934 218.291 32.5934C224.381 32.5934 229.141 34.4485 232.571 38.1585C236.001 41.7986 237.716 46.8036 237.716 53.1737V67.0339ZM226.271 53.1737C226.271 49.4637 225.501 47.0486 223.961 45.9286C222.421 44.8086 220.531 44.2486 218.291 44.2486C212.831 44.2486 210.101 47.2237 210.101 53.1737V68.0839C210.101 70.884 210.871 72.914 212.411 74.174C213.951 75.4341 215.911 76.0641 218.291 76.0641C220.601 76.0641 222.491 75.3991 223.961 74.069C225.501 72.739 226.271 70.744 226.271 68.0839V53.1737Z" fill="#3D3935"/>
<path d="M152.305 12.8532H163.855V75.7491H190.211V86.3542H152.305V12.8532Z" fill="#3D3935"/>
<path fill-rule="evenodd" clip-rule="evenodd" d="M0 60.9495C0 28.4085 25.513 1.8265 57.6273 0.115051C65.6691 5.68682 72.411 14.5689 73.6879 27.3275C75.5601 46.0347 65.8114 73.935 29.3913 113.088C11.7732 102.41 0 83.0548 0 60.9495ZM35.3242 116.249C43.1068 119.857 51.7792 121.871 60.922 121.871C94.5683 121.871 121.844 94.5958 121.844 60.9495C121.844 50.8087 119.366 41.2466 114.983 32.8356C115.849 38.8445 115.433 45.3981 113.16 52.3349C106.585 72.3988 84.6921 94.8391 35.3242 116.249ZM104.091 17.962C94.1056 7.93467 80.6496 1.36615 65.6768 0.210291C72.3301 6.4506 77.4996 15.2048 78.663 26.8296C80.6115 46.2997 71.2111 73.0762 40.1609 108.614C84.1674 88.3795 102.79 67.9222 108.409 50.7778C112.601 37.9841 109.666 26.6157 104.091 17.962Z" fill="#3D3935"/>
</svg>
