<svg width="90" height="32" viewBox="0 0 90 32" fill="none" xmlns="http://www.w3.org/2000/svg">
<path d="M90.0001 17.538C90.0001 19.0351 89.5764 20.2738 88.729 21.254C87.8816 22.2343 86.6014 22.7244 84.8882 22.7244C83.175 22.7244 81.8763 22.2343 80.9921 21.254C80.1263 20.256 79.6934 19.0173 79.6934 17.538V14.0091C79.6934 12.3159 80.1355 11.0238 81.0197 10.1327C81.9223 9.22371 83.2118 8.76923 84.8882 8.76923C86.4908 8.76923 87.7435 9.24153 88.6461 10.1861C89.5488 11.1129 90.0001 12.3872 90.0001 14.0091V17.538ZM86.9882 14.0091C86.9882 13.0645 86.7856 12.4496 86.3803 12.1645C85.975 11.8793 85.4777 11.7367 84.8882 11.7367C83.4513 11.7367 82.7329 12.4942 82.7329 14.0091V17.8053C82.7329 18.5183 82.9355 19.0351 83.3408 19.3559C83.746 19.6767 84.2618 19.8371 84.8882 19.8371C85.4961 19.8371 85.9935 19.6678 86.3803 19.3292C86.7856 18.9906 86.9882 18.4826 86.9882 17.8053V14.0091Z" fill="white"/>
<path d="M70.5637 25.7721C71.1901 25.7721 71.6782 25.5939 72.0282 25.2374C72.3967 24.8988 72.5809 24.3819 72.5809 23.6868V22.2432C72.4335 22.3501 72.1664 22.466 71.7795 22.5907C71.4111 22.7155 70.9322 22.7779 70.3427 22.7779C68.7216 22.7779 67.4597 22.3501 66.5571 21.4946C65.6544 20.6392 65.2031 19.3916 65.2031 17.7519V13.7685C65.2031 12.2001 65.6729 10.9882 66.6124 10.1327C67.5703 9.25935 68.8505 8.82269 70.4532 8.82269C70.969 8.82269 71.4295 8.88507 71.8348 9.00983C72.2401 9.11677 72.498 9.23262 72.6085 9.35737L73.1888 9.0633H75.6204V24.1681C75.6204 26.7702 74.1743 28.0712 71.2822 28.0712L70.5637 25.7721ZM72.5809 14.0358C72.5809 13.3229 72.4151 12.7615 72.0835 12.3516C71.7519 11.9417 71.1716 11.7367 70.3427 11.7367C69.5874 11.7367 69.044 11.9506 68.7124 12.3783C68.3992 12.7882 68.2426 13.2962 68.2426 13.9022V17.3509C68.2426 19.0797 68.9427 19.9441 70.3427 19.9441C71.2453 19.9441 71.844 19.6589 72.1388 19.0886C72.4335 18.5183 72.5809 17.5826 72.5809 16.2815V14.0358Z" fill="white"/>
<path d="M62.557 17.538C62.557 19.0351 62.1333 20.2738 61.2859 21.254C60.4385 22.2343 59.1582 22.7244 57.4451 22.7244C55.7319 22.7244 54.4332 22.2343 53.5489 21.254C52.6831 20.256 52.2502 19.0173 52.2502 17.538V14.0091C52.2502 12.3159 52.6924 11.0238 53.5766 10.1327C54.4792 9.22371 55.7687 8.76923 57.4451 8.76923C59.0477 8.76923 60.3004 9.24153 61.203 10.1861C62.1056 11.1129 62.557 12.3872 62.557 14.0091V17.538ZM59.5451 14.0091C59.5451 13.0645 59.3424 12.4496 58.9372 12.1645C58.5319 11.8793 58.0345 11.7367 57.4451 11.7367C56.0082 11.7367 55.2898 12.4942 55.2898 14.0091V17.8053C55.2898 18.5183 55.4924 19.0351 55.8977 19.3559C56.3029 19.6767 56.8187 19.8371 57.4451 19.8371C58.053 19.8371 58.5503 19.6678 58.9372 19.3292C59.3424 18.9906 59.5451 18.4826 59.5451 17.8053V14.0091Z" fill="white"/>
<path d="M40.0803 3.74323H43.1198V19.7569H50.0555V22.4571H40.0803V3.74323Z" fill="white"/>
<path fill-rule="evenodd" clip-rule="evenodd" d="M23.1117 2.06814C22.1854 1.62629 21.2085 1.26845 20.1917 1.0049C21.4055 2.63719 22.2852 4.66871 22.5412 7.14268C22.9774 11.3601 21.5326 16.4347 17.4305 22.4849C23.298 18.8625 25.8779 15.4892 26.7807 12.8238C28.0308 9.1329 26.2934 5.94836 23.9945 4.03004C23.3919 3.52723 23.0915 2.79834 23.1117 2.06814ZM6.39378 27.9615C6.29892 28.0306 6.20978 28.1057 6.12667 28.1861C2.39586 25.346 0 20.9381 0 15.9889C0 8.76289 5.10705 2.69099 12.0195 0.967529C14.6435 1.89311 17.183 4.0278 17.5512 7.58749C17.9576 11.5165 15.8713 18.1035 6.39378 27.9615ZM11.8628 30.9703C23.7402 25.6823 29.6268 19.9805 31.5269 14.3709C31.6442 14.0244 31.7456 13.6813 31.8317 13.3418C31.9846 14.202 32.0642 15.0864 32.0642 15.9889C32.0642 24.5554 24.8864 31.5 16.0321 31.5C14.5899 31.5 13.1922 31.3158 11.8628 30.9703Z" fill="white"/>
</svg>
