<svg width="12" height="12" viewBox="0 0 12 12" fill="none" xmlns="http://www.w3.org/2000/svg">
<g id="Question mark">
<path id="Vector" d="M6 11C8.76142 11 11 8.76142 11 6C11 3.23858 8.76142 1 6 1C3.23858 1 1 3.23858 1 6C1 8.76142 3.23858 11 6 11Z" stroke="black"/>
<path id="Vector_2" d="M6.00001 9.6111C6.15342 9.6111 6.27778 9.48673 6.27778 9.33332C6.27778 9.17991 6.15342 9.05554 6.00001 9.05554C5.84659 9.05554 5.72223 9.17991 5.72223 9.33332C5.72223 9.48673 5.84659 9.6111 6.00001 9.6111Z" fill="black"/>
<path id="Vector_3" d="M5.99998 8.22223V7.74612C5.99998 7.34945 6.19831 6.9789 6.52831 6.7589L6.86109 6.53667C7.10891 6.37141 7.3121 6.14753 7.45263 5.88489C7.59315 5.62225 7.66667 5.32899 7.66665 5.03112V4.8889C7.66665 4.44687 7.49105 4.02295 7.17849 3.71038C6.86593 3.39782 6.44201 3.22223 5.99998 3.22223C5.55795 3.22223 5.13403 3.39782 4.82147 3.71038C4.50891 4.02295 4.33331 4.44687 4.33331 4.8889" stroke="black"/>
</g>
</svg>
