<svg width="65" height="65" viewBox="0 0 65 65" fill="none" xmlns="http://www.w3.org/2000/svg">
<path d="M32.5 63C49.3447 63 63 49.3447 63 32.5C63 15.6553 49.3447 2 32.5 2C15.6553 2 2 15.6553 2 32.5C2 49.3447 15.6553 63 32.5 63Z" stroke="#EF8915" stroke-width="3"/>
<path d="M32.5 54.5277C33.4359 54.5277 34.1945 53.7691 34.1945 52.8333C34.1945 51.8974 33.4359 51.1388 32.5 51.1388C31.5642 51.1388 30.8056 51.8974 30.8056 52.8333C30.8056 53.7691 31.5642 54.5277 32.5 54.5277Z" fill="#EF8915"/>
<path d="M32.4999 46.0556V43.1513C32.4999 40.7317 33.7097 38.4713 35.7227 37.1293L37.7526 35.7737C39.2643 34.7656 40.5038 33.3999 41.361 31.7978C42.2182 30.1958 42.6667 28.4068 42.6665 26.5898V25.7223C42.6665 23.0259 41.5954 20.44 39.6888 18.5334C37.7822 16.6267 35.1962 15.5556 32.4999 15.5556C29.8035 15.5556 27.2176 16.6267 25.3109 18.5334C23.4043 20.44 22.3332 23.0259 22.3332 25.7223" stroke="#EF8915" stroke-width="3"/>
</svg>
