<svg width="25" height="25" viewBox="0 0 25 25" fill="none" xmlns="http://www.w3.org/2000/svg">
<g id="check">
<path id="Vector" fill-rule="evenodd" clip-rule="evenodd" d="M23.2574 0.751627C24.0932 1.33292 24.3274 2.52319 23.7808 3.41205L11.4899 23.4037C11.3467 23.6366 11.1576 23.8337 10.9358 23.9813C10.7139 24.1289 10.4646 24.2235 10.205 24.2586C9.94538 24.2937 9.68172 24.2684 9.4322 24.1846C9.18269 24.1007 8.95328 23.9602 8.75983 23.7727L0.806859 16.0837C0.45212 15.7407 0.240032 15.2618 0.217253 14.7525C0.194475 14.2432 0.36287 13.7451 0.685395 13.3679C1.00792 12.9906 1.45815 12.7651 1.93705 12.7408C2.41595 12.7166 2.88428 12.8957 3.23902 13.2387L9.62453 19.4115L20.7558 1.30832C21.0182 0.88177 21.4291 0.583506 21.8982 0.479112C22.3673 0.374718 22.8562 0.472741 23.2574 0.751627Z" fill="#EF4444"/>
</g>
</svg>
