<svg width="24" height="25" viewBox="0 0 24 25" fill="none" xmlns="http://www.w3.org/2000/svg">
<g id="check">
<path id="Vector" fill-rule="evenodd" clip-rule="evenodd" d="M23.1131 0.820108C23.9514 1.4014 24.1864 2.59167 23.6381 3.48053L11.3093 23.4721C11.1657 23.7051 10.9761 23.9022 10.7535 24.0498C10.531 24.1974 10.2809 24.292 10.0205 24.3271C9.76011 24.3622 9.49564 24.3369 9.24535 24.253C8.99507 24.1691 8.76496 24.0286 8.57091 23.8412L0.593469 16.1521C0.237639 15.8091 0.0248987 15.3303 0.0020498 14.821C-0.0207991 14.3117 0.148114 13.8136 0.471632 13.4364C0.795149 13.0591 1.24677 12.8335 1.72714 12.8093C2.20751 12.7851 2.67729 12.9642 3.03312 13.3072L9.43827 19.48L20.6038 1.3768C20.867 0.950251 21.2792 0.651987 21.7497 0.547593C22.2203 0.443199 22.7107 0.541222 23.1131 0.820108Z" fill="#E2DA1D"/>
</g>
</svg>
